<svg xmlns="http://www.w3.org/2000/svg" width="440" height="96" viewBox="0 0 330 72"><path d="M133.4 1.4c-7.6 1.8-11 3.5-15.1 7.8-5.3 5.4-7.6 12-8.1 22.9-.7 13.9 2.7 25.8 9 31.6 8.5 7.9 31.3 10.2 44.2 4.4 9.9-4.4 14.7-13.2 15.4-28.4 1-20.3-4.6-31.8-17.7-36.8-7.1-2.7-19.5-3.3-27.7-1.5M154 13.8c4.9 2.4 7.6 7.1 9 15.4 1.5 8.7.2 18.1-3.1 23.4-2.7 4.4-8.7 7.3-15.1 7.4-13.5 0-19.4-8.4-18.6-26.9.4-10.9 2.5-15.7 8.2-19.2 4.1-2.5 14.7-2.6 19.6-.1M211.7 2c-11.5 2-18.4 8.1-21.9 19.3-1.7 5.8-2 8.5-1.5 17 .7 13.2 2.1 17.1 8.2 23.4 7 7.2 11.3 8.3 32.2 8.3H245V58h-15.7c-18.1 0-21.1-1-24.1-7.8-2.5-5.7-2.2-22.2.6-28.4 3.4-7.8 6-8.8 23.5-8.8H244V1l-13.7.1c-7.6.1-15.9.5-18.6.9m70.8 0c-.3.5-7.1 16.1-15 34.5l-14.3 33.6 7.6-.3 7.7-.3 2.9-7.8 2.9-7.7 15.6.2 15.5.3 3.2 7.5 3.1 7.5 7.7.3c7.4.3 7.7.2 7.1-1.7-.3-1.1-6-14.5-12.7-29.8-6.6-15.3-12.9-29.9-14-32.6L297.7 1h-7.3c-4 0-7.6.4-7.9 1m12.6 26.5c2.4 6 4.6 11.3 4.7 11.7.2.4-4.3.8-10.1.8h-10.5l4.2-10.8c2.3-5.9 4.6-11.6 5-12.6 1-2.7 1.7-1.5 6.7 10.9M42 5.6c0 .3 6.6 7.3 14.6 15.5L71.2 36 56.4 51.3 41.6 66.5l15 .3 14.9.3 14.8-15c8.1-8.3 14.7-15.5 14.7-16s-6.6-7.7-14.6-16L71.8 5H56.9c-8.2 0-14.9.3-14.9.6"/></svg>